<?xml version="1.0" encoding="UTF-8" standalone="no"?>
<svg
   xmlns:dc="http://purl.org/dc/elements/1.1/"
   xmlns:cc="http://creativecommons.org/ns#"
   xmlns:rdf="http://www.w3.org/1999/02/22-rdf-syntax-ns#"
   xmlns:svg="http://www.w3.org/2000/svg"
   xmlns="http://www.w3.org/2000/svg"
   xmlns:sodipodi="http://sodipodi.sourceforge.net/DTD/sodipodi-0.dtd"
   xmlns:inkscape="http://www.inkscape.org/namespaces/inkscape"
   width="323.86"
   height="133.38"
   viewBox="0 0 323.86 133.382"
   version="1.1"
   id="svg1043"
   sodipodi:docname="dog_logo.svg"
   inkscape:version="0.92.2 5c3e80d, 2017-08-06">
  <metadata
     id="metadata1049">
    <rdf:RDF>
      <cc:Work
         rdf:about="">
        <dc:format>image/svg+xml</dc:format>
        <dc:type
           rdf:resource="http://purl.org/dc/dcmitype/StillImage" />
        <dc:title />
      </cc:Work>
    </rdf:RDF>
  </metadata>
  <defs
     id="defs1047" />
  <sodipodi:namedview
     pagecolor="#ffffff"
     bordercolor="#666666"
     borderopacity="1"
     objecttolerance="10"
     gridtolerance="10"
     guidetolerance="10"
     inkscape:pageopacity="0"
     inkscape:pageshadow="2"
     inkscape:window-width="1440"
     inkscape:window-height="855"
     id="namedview1045"
     showgrid="false"
     inkscape:zoom="2.8296499"
     inkscape:cx="93.500541"
     inkscape:cy="79.318147"
     inkscape:window-x="0"
     inkscape:window-y="1"
     inkscape:window-maximized="1"
     inkscape:current-layer="svg1043" />
  <path
     d="m 217.66842,42.391 42.91831,14.742825 39.26969,13.949175 30.996,-8.028 12.672,-9.036 -10.619,12.132 -19.621,9.828 -28.691,-0.252 -13.176,-1.8 -5.184,-5.939 -14.184,-8.532 -14.473,-0.252 -17.064,10.332 -5.688,10.08 1.547,11.376 -47.61942,0.756 -35.2039,11.25105 1.6159,-14.85105 -16.02,-8.531 16.02,8.531 -3.132,28.404 17.064,0.252 -2.844,8.028 -16.02,0.252 -16.524,-25.056 -19.908,-15.265 19.908,15.265 -0.7539,2.26478 L 94.592,95.887 87.356,87.86 60.300834,51.560252 71.84,40.591 67.196,14.743 71.84,40.591 53.768,57.655 49.628,52.471 47.288,36.199 56.072,13.987 47.288,36.199 10.1,27.415 3.116,15.787 l 5.94,-1.044 1.8,-4.896 H 31.52 l 5.184,-7.776 36.432,4.14 18.36,25.848 21.168,15.516 42.372,-0.792 z"
     stroke-miterlimit="10"
     id="path1033"
     inkscape:connector-curvature="0"
     style="opacity:0.98999999;fill:#ffffff;fill-rule:evenodd;stroke:#000000;stroke-width:1.00001496;stroke-miterlimit:9;stroke-dasharray:none"
     sodipodi:nodetypes="cccccccccccccccccccccccccccccccccccccccccccccccccc" />
  <path
     d="m38.504,8.047 7.776.756-5.976,1.296-.504,4.896-3.6-1.8 2.304-5.148z"
     fill-rule="evenodd"
     stroke="#000"
     stroke-miterlimit="10"
     stroke-width=".036"
     id="path1035"
     style="stroke-width:1.00001496;stroke-miterlimit:9;stroke-dasharray:none;fill:none" />
  <path
     d="m 94.592,95.887 18.3621,6.40578 0.7539,9.86622 -20.664,7.487 -4.932,8.532 -20.916,1.8 2.592,-6.191 13.428,0.252 11.628,-18.864 -6.192,-5.939 -1.296,-11.376 z"
     stroke-miterlimit="10"
     id="path1037"
     inkscape:connector-curvature="0"
     style="fill:#ffffff;fill-rule:evenodd;stroke:#000000;stroke-width:1.00001496;stroke-miterlimit:9;stroke-dasharray:none"
     sodipodi:nodetypes="cccccccccccc" />
  <path
     d="m 271.41742,73.927 -5.184,-5.939 -14.184,-8.532 -14.473,-0.252 -17.064,10.332 -5.688,10.08 1.547,11.376 5.69,10.835 12.672,9.828 -18.361,13.176 -9.539,-0.252 0.504,5.147 12.672,1.801 22.465,-16.524 -4.645,-10.584 12.133,-10.332 8.279,-1.548 z"
     stroke-miterlimit="10"
     id="path1039"
     inkscape:connector-curvature="0"
     style="fill:#ffffff;fill-rule:evenodd;stroke:#000000;stroke-width:1.00001496;stroke-miterlimit:9;stroke-dasharray:none"
     sodipodi:nodetypes="cccccccccccccccccc" />
  <path
     d="m 258.24142,92.539 -8.279,1.548 -12.133,10.332 1.14125,2.59621 22.11375,4.89279 11.377,17.063 10.08,-3.384 -8.533,-3.348 -4.645,-18.36 -8.74268,-3.6 1.17936,-12.754635 z"
     stroke-miterlimit="10"
     id="path1041"
     inkscape:connector-curvature="0"
     style="fill:#ffffff;fill-rule:evenodd;stroke:#000000;stroke-width:1.00001496;stroke-miterlimit:9;stroke-dasharray:none"
     sodipodi:nodetypes="cccccccccccc" />
  <path
     style="fill:none;stroke:#000000;stroke-width:1.00001496;stroke-linecap:butt;stroke-linejoin:miter;stroke-opacity:1;stroke-miterlimit:9;stroke-dasharray:none"
     d="M 3.1160001,15.787001 4.3707601,10.68321 10.856,9.8470004 9.0560004,14.743 Z"
     id="path1051"
     inkscape:connector-curvature="0" />
</svg>
