<?xml version="1.0" encoding="UTF-8" standalone="no"?>
<svg
   xmlns:dc="http://purl.org/dc/elements/1.1/"
   xmlns:cc="http://creativecommons.org/ns#"
   xmlns:rdf="http://www.w3.org/1999/02/22-rdf-syntax-ns#"
   xmlns:svg="http://www.w3.org/2000/svg"
   xmlns="http://www.w3.org/2000/svg"
   xmlns:sodipodi="http://sodipodi.sourceforge.net/DTD/sodipodi-0.dtd"
   xmlns:inkscape="http://www.inkscape.org/namespaces/inkscape"
   width="132.28346"
   height="50.127628"
   viewBox="0 0 132.28347 50.128378"
   version="1.1"
   id="svg1043"
   sodipodi:docname="dog_logo_path.svg"
   inkscape:version="0.92.2 5c3e80d, 2017-08-06">
  <sodipodi:namedview
     pagecolor="#ffffff"
     bordercolor="#666666"
     borderopacity="1"
     objecttolerance="10"
     gridtolerance="10"
     guidetolerance="10"
     inkscape:pageopacity="0"
     inkscape:pageshadow="2"
     inkscape:window-width="1440"
     inkscape:window-height="855"
     id="namedview1045"
     showgrid="false"
     inkscape:zoom="45.274398"
     inkscape:cx="40.677427"
     inkscape:cy="11.678773"
     inkscape:window-x="0"
     inkscape:window-y="1"
     inkscape:window-maximized="1"
     inkscape:current-layer="svg1043"
     fit-margin-top="0"
     fit-margin-left="0"
     fit-margin-right="0"
     fit-margin-bottom="0" />
  <metadata
     id="metadata1049">
    <rdf:RDF>
      <cc:Work
         rdf:about="">
        <dc:format>image/svg+xml</dc:format>
        <dc:type
           rdf:resource="http://purl.org/dc/dcmitype/StillImage" />
        <dc:title></dc:title>
      </cc:Work>
    </rdf:RDF>
  </metadata>
  <defs
     id="defs1047" />
  <path
     style="color:#000000;font-style:normal;font-variant:normal;font-weight:normal;font-stretch:normal;font-size:medium;line-height:normal;font-family:sans-serif;font-variant-ligatures:normal;font-variant-position:normal;font-variant-caps:normal;font-variant-numeric:normal;font-variant-alternates:normal;font-feature-settings:normal;text-indent:0;text-align:start;text-decoration:none;text-decoration-line:none;text-decoration-style:solid;text-decoration-color:#000000;letter-spacing:normal;word-spacing:normal;text-transform:none;writing-mode:lr-tb;direction:ltr;text-orientation:mixed;dominant-baseline:auto;baseline-shift:baseline;text-anchor:start;white-space:normal;shape-padding:0;clip-rule:nonzero;display:inline;overflow:visible;visibility:visible;opacity:0.98999999;isolation:auto;mix-blend-mode:normal;color-interpolation:sRGB;color-interpolation-filters:linearRGB;solid-color:#000000;solid-opacity:1;vector-effect:none;fill:#000000;fill-opacity:1;fill-rule:evenodd;stroke:none;stroke-width:0.75590551;stroke-linecap:butt;stroke-linejoin:miter;stroke-miterlimit:9;stroke-dasharray:none;stroke-dashoffset:0;stroke-opacity:1;color-rendering:auto;image-rendering:auto;shape-rendering:auto;text-rendering:auto;enable-background:accumulate"
     d="M13.021484 -0.19726562L11.013672 2.8125L3.8222656 2.8125L3.2578125 2.8125L0.484375 3.1699219L0.0 5.1425781L-0.09570312 5.5332031L0.1171875 5.8886719L2.7460938 10.269531L16.935547 13.621094L17.8125 19.71875L19.722656 22.109375L22.208984 19.761719L32.296875 33.298828L32.800781 37.703125L35.056641 39.867188L30.863281 46.669922L25.664062 46.572262L24.328125 49.761715L33.181641 49.0L35.105469 45.671875L43.181641 42.746094L42.896483 38.685544L48.929687 47.833981L55.552733 47.728513L56.908202 43.902341L50.242187 43.802731L50.74414 39.257809L63.98828 35.025388L81.98828 34.738278L84.105468 38.767575L88.636718 42.2832L82.099608 46.974606L78.134765 46.869138L78.398437 49.568356L83.71289 50.322263L92.708983 43.705075L91.541015 41.042966L99.160155 42.728513L103.60547 49.396481L108.73633 47.673825L104.67383 46.078122L102.89062 39.031247L99.61328 37.681638L100.03125 33.156247L103.53516 28.208981L108.39258 28.873044L119.52734 28.970704L127.21094 25.121095L133.4707 17.968751L126.02539 23.279298L114.29883 26.316407L99.324218 20.996095L82.763671 15.308595L82.687501 15.314495L58.640625 17.0L42.503906 17.300781L34.525391 11.453125L27.410156 1.4375L13.021484 -0.19726562M13.394531 0.60546875L26.990234 2.1503906L33.980469 11.990234L42.261719 18.0625L58.673828 17.755859L82.664062 16.074219L99.074219 21.710938L114.26562 27.105469L126.34961 23.976562L128.63672 22.345703L126.74023 24.511719L119.35156 28.212891L108.44727 28.117191L103.55078 27.447269L101.61328 25.228519L96.027344 21.869144L90.257812 21.769534L83.525391 25.845706L81.230469 29.914065L81.783203 33.986331L63.863281 34.271487L50.841797 38.433597L51.427734 33.052737L45.048828 29.656253L44.693359 30.322269L50.621094 33.478519L49.400391 44.546878L55.84375 44.642578L55.015625 46.982422L49.332031 47.072262L43.199219 37.773434L43.06445 37.570307L43.06445 37.568307L35.367185 31.665964L34.9082 32.265573L42.339841 37.964792L42.255861 38.214792L40.04883 37.44526L35.658205 35.912057L32.95508 32.91401L22.77344 19.255807L27.11133 15.13276L25.291018 5.0038542L24.546877 5.1386199L26.294924 14.865182L19.800783 20.997995L18.531252 19.406198L17.660158 13.359323L17.660158 13.357323L20.998047 4.9199219L20.294922 4.6425781L17.041016 12.869141L3.2304688 9.6074219L0.9140625 5.7480469L2.8671875 5.40625L3.5429688 3.5683594L11.417969 3.5683594L13.394531 0.60546875M13.664062 2.0976562L13.552734 2.3457031L12.521484 4.6523438L14.591797 5.6875L15.261719 4.0585938L18.191406 2.5371094L13.664062 2.0976562M14.132812 2.9023438L15.580078 3.0429688L14.667969 3.515625L14.201172 4.6484375L13.505859 4.3007812L14.132812 2.9023438M2.7089844 3.6464844L2.3085938 4.7363281L0.8125 5.0L1.09375 3.8535156L2.7089844 3.6464844M90.462891 22.527344L95.8125 22.621094L101.12109 25.816406L102.87891 27.828125L98.080078 34.607422L94.949219 35.193359L89.998047 39.410156L90.626953 40.839844L91.773438 43.455078L83.513672 49.53125L79.09375 48.902344L78.970703 47.648438L82.333984 47.736328L89.900391 42.306641L84.697266 38.271484L82.582031 34.240234L82.013672 30.064453L84.087891 26.388672L90.462891 22.527344M33.169922 34.285156L35.224609 36.5625L35.316409 36.5957L42.136722 38.974606L42.384769 42.230466L34.587894 45.054685L32.724612 48.281247L25.509769 48.902341L26.164065 47.337888L31.281253 47.433588L36.019534 39.744135L33.519534 37.345697L33.169922 34.285156M99.160156 34.390625L98.810547 38.167969L102.25 39.583984L104.03516 46.640625L106.52539 47.617188L103.91406 48.494141L99.621094 42.054688L91.166016 40.185547L90.917969 39.621094L95.287109 35.900391L98.517578 35.294922L98.605468 35.171875L99.160156 34.390625"
     transform="matrix(1.000015,0,0,1.000015,-9.8543146e-4,0)"
     id="path1033"
     inkscape:connector-curvature="0"
     sodipodi:nodetypes="ccccccccccccccccccccccccccccccccccccccccccccccccccccccccccccccccccccccccccccccccccccccccccccccccccccccccccccccccccccccccccccccccccccccccccccccccccccccccccccccccccccccccccccccccccccc" />
</svg>
